<?xml version="1.0" standalone="no"?>
<!DOCTYPE svg PUBLIC "-//W3C//DTD SVG 20010904//EN"
 "http://www.w3.org/TR/2001/REC-SVG-20010904/DTD/svg10.dtd">
<svg version="1.0" xmlns="http://www.w3.org/2000/svg"
 width="829.000000pt" height="565.000000pt" viewBox="0 0 829.000000 565.000000"
 preserveAspectRatio="xMidYMid meet">

<g transform="translate(0.000000,565.000000) scale(0.100000,-0.100000)"
fill="#000000" stroke="none">
<path d="M4120 5090 c-19 -19 -20 -33 -20 -474 l0 -453 -85 -7 c-47 -3 -156
-15 -242 -26 -86 -11 -157 -19 -158 -18 -3 3 -60 304 -121 628 -14 74 -29 145
-34 158 -13 29 -52 44 -85 32 -47 -18 -48 -41 -16 -210 104 -539 121 -629 121
-638 0 -5 -15 -12 -32 -15 -53 -8 -217 -54 -308 -86 -47 -17 -89 -31 -95 -31
-5 0 -24 33 -42 73 -270 618 -268 615 -322 602 -73 -19 -69 -52 35 -287 47
-106 102 -229 121 -273 19 -44 45 -99 56 -122 11 -24 19 -44 16 -45 -28 -18
-73 -38 -83 -38 -7 0 -79 -34 -161 -75 -109 -55 -151 -72 -156 -63 -4 7 -67
102 -140 211 -133 196 -153 217 -199 208 -26 -5 -50 -33 -50 -58 0 -21 169
-284 257 -399 12 -17 23 -35 23 -40 0 -8 -27 -27 -90 -61 -13 -8 -43 -29 -66
-48 -23 -19 -45 -35 -49 -35 -4 0 -40 -27 -82 -61 -41 -33 -78 -59 -83 -57 -4
2 -56 57 -115 123 -131 147 -140 155 -175 155 -37 0 -60 -24 -60 -63 0 -32 31
-71 196 -250 l54 -57 -40 -37 c-33 -30 -40 -44 -40 -74 0 -44 25 -69 69 -69
26 0 49 14 111 68 123 107 171 146 186 155 8 5 43 30 78 56 111 84 314 205
466 277 41 19 100 47 130 61 30 15 64 30 75 34 11 4 44 16 74 28 29 12 58 21
62 21 5 0 28 9 52 20 23 10 63 24 88 29 26 6 59 15 75 22 103 39 469 109 679
129 141 13 433 13 566 0 214 -22 524 -84 644 -130 28 -10 66 -23 85 -29 102
-28 422 -181 494 -236 18 -14 36 -25 40 -25 22 0 255 -193 346 -286 153 -156
151 -154 180 -154 36 0 70 34 70 71 0 17 -11 45 -26 64 l-26 34 40 43 c95 103
225 255 234 275 24 50 -21 103 -75 89 -16 -4 -74 -62 -153 -155 -71 -82 -133
-150 -138 -150 -8 -1 -178 148 -184 162 -2 4 -9 7 -16 7 -7 0 -21 8 -30 19
-16 17 -10 29 124 239 80 127 140 231 140 245 0 59 -81 78 -122 28 -12 -15
-77 -114 -143 -219 -66 -105 -125 -191 -132 -192 -6 0 -18 6 -25 13 -17 17
-86 56 -228 130 -63 33 -116 60 -117 61 -2 2 28 74 66 162 38 87 91 211 118
274 65 151 68 162 42 194 -26 33 -68 34 -96 4 -11 -13 -66 -131 -123 -263 -56
-132 -111 -259 -121 -282 l-18 -41 -62 25 c-66 27 -254 81 -356 104 -35 7 -63
16 -63 20 0 4 25 124 56 266 101 470 105 493 92 516 -15 30 -27 37 -64 37 -51
0 -51 2 -144 -445 -28 -132 -56 -266 -62 -299 l-12 -58 -47 6 c-135 18 -345
36 -426 36 l-93 0 0 450 c0 437 -1 451 -20 470 -11 11 -31 20 -45 20 -14 0
-34 -9 -45 -20z"/>
<path d="M4125 3884 c-22 -2 -116 -11 -210 -20 -231 -21 -434 -65 -684 -150
-162 -55 -248 -94 -491 -221 -70 -36 -197 -117 -223 -141 -13 -12 -28 -22 -34
-22 -5 0 -21 -10 -35 -22 -13 -13 -49 -42 -80 -65 -30 -23 -108 -92 -172 -155
-101 -98 -116 -117 -116 -145 0 -22 8 -38 27 -53 44 -35 76 -21 173 74 96 95
137 131 230 202 80 61 233 164 245 164 4 0 22 10 39 23 38 29 278 147 297 147
8 0 23 6 34 13 11 8 36 20 55 27 19 7 53 19 75 27 22 9 54 19 70 23 17 4 93
26 170 49 154 45 155 45 155 31 0 -5 -6 -10 -13 -10 -17 0 -105 -65 -170 -127
-60 -57 -112 -119 -153 -183 -52 -82 -75 -128 -112 -225 -96 -251 -78 -582 45
-820 97 -187 201 -304 374 -420 53 -36 103 -65 112 -65 9 0 18 -4 21 -9 11
-18 184 -71 278 -86 123 -19 192 -19 321 0 207 31 377 110 546 254 57 49 164
174 191 225 10 17 32 58 50 91 40 72 86 214 101 310 7 41 9 130 6 215 -4 126
-9 158 -36 245 -62 197 -156 348 -297 475 -89 81 -124 108 -171 131 -49 24
-66 42 -31 35 12 -3 59 -12 103 -20 226 -42 496 -133 690 -233 112 -58 150
-79 220 -126 181 -119 211 -144 391 -324 139 -140 156 -153 188 -153 29 0 38
5 51 30 26 50 3 91 -130 228 -113 117 -228 211 -413 341 -39 26 -239 141 -248
141 -3 0 -44 19 -92 41 -90 43 -214 92 -292 115 -249 72 -383 100 -575 119
-167 16 -412 26 -480 19z m304 -239 c52 -14 104 -32 115 -38 12 -6 35 -16 52
-23 50 -18 165 -98 230 -161 98 -95 153 -178 224 -338 47 -106 63 -330 36
-495 -19 -115 -89 -281 -143 -340 -13 -14 -23 -28 -23 -33 0 -26 -185 -190
-260 -230 -184 -99 -274 -122 -470 -121 -129 1 -151 4 -295 44 -30 8 -86 33
-115 51 -8 5 -33 18 -55 30 -55 29 -235 185 -235 204 0 3 -15 25 -34 48 -92
113 -156 306 -164 493 -12 315 120 582 385 780 91 67 263 134 408 158 76 12
251 -2 344 -29z"/>
<path d="M4025 3031 c-102 -50 -156 -114 -181 -215 -43 -171 51 -341 215 -390
67 -20 120 -20 189 -2 63 17 94 36 145 89 68 71 82 109 82 222 0 92 -3 104
-30 154 -35 63 -91 114 -160 147 -76 36 -180 34 -260 -5z"/>
<path d="M1884 2721 c-29 -31 -31 -72 -4 -96 11 -10 20 -23 20 -28 0 -6 19
-33 42 -61 27 -31 38 -51 30 -54 -7 -2 -75 -73 -152 -158 -121 -133 -140 -159
-140 -188 0 -19 8 -40 18 -49 19 -18 59 -22 77 -9 9 6 153 163 247 269 l36 41
119 -117 c65 -65 140 -135 167 -158 l50 -40 -66 -94 c-138 -198 -208 -308
-208 -326 0 -35 29 -63 65 -63 41 0 45 4 199 233 119 175 120 177 140 159 45
-40 218 -144 304 -182 28 -13 52 -27 52 -31 0 -4 -56 -134 -125 -289 -69 -155
-125 -295 -125 -310 0 -41 25 -62 69 -58 45 4 43 -1 242 453 33 77 62 142 64
144 2 2 44 -12 92 -32 90 -35 272 -92 331 -103 17 -4 32 -12 32 -18 0 -15 -24
-142 -85 -460 -46 -238 -46 -240 -27 -265 21 -28 42 -36 76 -27 29 7 40 32 61
141 9 50 27 144 40 210 13 66 33 174 45 240 12 66 23 125 25 131 2 7 41 5 127
-7 155 -23 344 -40 363 -33 13 5 15 -47 15 -409 l0 -416 27 -20 c28 -23 54
-21 85 7 16 14 18 50 20 426 l3 411 95 7 c76 5 308 39 450 65 24 4 26 2 48
-109 43 -210 123 -583 128 -601 8 -27 50 -50 79 -43 14 4 32 17 41 31 15 23
15 32 -5 122 -22 98 -74 342 -111 521 -11 52 -20 101 -20 107 0 7 42 24 93 39
50 16 126 42 167 58 41 17 92 37 114 45 21 7 52 21 68 29 16 9 31 14 32 12 1
-2 56 -129 121 -283 65 -154 128 -290 139 -302 24 -28 56 -29 86 -5 41 33 41
34 -129 425 -50 115 -91 214 -91 220 0 7 24 25 53 41 28 15 68 37 87 48 19 10
47 26 61 36 14 9 46 30 70 46 24 16 53 37 65 47 21 19 21 19 115 -128 204
-319 211 -328 247 -331 42 -4 72 21 72 58 0 15 -14 49 -32 76 -17 27 -46 72
-63 99 -84 132 -150 234 -176 272 -16 23 -29 45 -29 50 0 5 12 16 28 25 28 17
81 65 164 146 l47 46 23 -30 c76 -97 273 -310 294 -318 35 -14 79 20 79 62 0
26 -21 56 -115 164 -63 73 -132 150 -153 171 l-38 37 61 73 c106 125 110 131
110 155 0 32 -43 72 -78 72 -30 0 -38 -7 -150 -135 -106 -121 -286 -295 -358
-345 -12 -8 -56 -41 -98 -73 -337 -256 -762 -431 -1256 -520 -112 -20 -158
-22 -440 -22 -335 0 -435 10 -640 66 -41 11 -93 24 -115 29 -22 4 -78 22 -125
39 -47 18 -105 39 -129 47 -124 44 -466 227 -479 257 -2 4 -8 7 -14 7 -8 0
-76 46 -88 61 -3 3 -13 10 -23 15 -74 41 -352 320 -456 459 -72 96 -87 111
-118 116 -29 5 -39 2 -59 -20z"/>
</g>
</svg>
